<?xml version="1.0" encoding="UTF-8"?><svg id="Capa_2" xmlns="http://www.w3.org/2000/svg" viewBox="0 0 200 200"><g id="Components"><g id="_78caea49-2b43-4bb8-aa3c-aa62217adff8_1"><rect width="200" height="200" style="fill:#2d50ff;"/><path d="M138.178,46.1875l-20.095,23.3936v1.4656h19.79v84.6793h22.96V46.1875h-22.655Z" style="fill:#fff;"/><path d="M34.0203,82.5927c0-7.5535,1.7376-14.3067,5.1449-20.079,3.4186-5.7722,8.1347-10.3269,14.0243-13.5288,5.8782-3.2018,12.6929-4.8252,20.2297-4.8252s14.453,1.6009,20.2296,4.7463c5.7767,3.1455,10.3912,7.4409,13.6972,12.7396,3.317,5.3101,4.998,11.3079,4.998,17.8355,0,4.4082-.688,8.6359-2.053,12.5705-1.366,3.9347-3.915,8.2634-7.582,12.8634l-25.0138,31.195h35.2698v19.73H33.1064v-1.635l44.713-52.649c3.2945-3.7997,5.9459-7.475,7.8978-10.9023,1.9181-3.3822,2.8884-6.7193,2.8884-9.9324,0-4.4984-1.3653-8.1962-4.0505-10.9809-2.6853-2.7847-6.5327-4.1939-11.4519-4.1939s-8.7214,1.4881-11.3615,4.4081c-2.6514,2.9425-3.9941,7.1928-3.9941,12.6381h-23.7386.0113Z" style="fill:#fff;"/></g></g></svg>
